<mxfile host="app.diagrams.net" modified="2023-04-18T21:12:41.365Z" agent="Mozilla/5.0 (Windows NT 10.0; Win64; x64) AppleWebKit/537.36 (KHTML, like Gecko) Chrome/111.0.0.0 Safari/537.36 OPR/97.0.0.0" etag="rpSj9h2uaW29L-AbUov_" version="21.1.8" type="github">
  <diagram name="PÃ¡gina-1" id="lBsqqBnKQ7eO6-Bt8gyk">
    <mxGraphModel dx="1282" dy="762" grid="1" gridSize="10" guides="1" tooltips="1" connect="1" arrows="1" fold="1" page="1" pageScale="1" pageWidth="827" pageHeight="1169" math="0" shadow="0">
      <root>
        <mxCell id="0" />
        <mxCell id="1" parent="0" />
        <mxCell id="aG2Aldjfy5AcgCDv7o8_-2" value="" style="rounded=0;whiteSpace=wrap;html=1;" vertex="1" parent="1">
          <mxGeometry x="10" y="20" width="460" height="310" as="geometry" />
        </mxCell>
        <mxCell id="aG2Aldjfy5AcgCDv7o8_-3" value="" style="rounded=0;whiteSpace=wrap;html=1;" vertex="1" parent="1">
          <mxGeometry x="10" y="20" width="460" height="30" as="geometry" />
        </mxCell>
        <mxCell id="aG2Aldjfy5AcgCDv7o8_-4" value="" style="rounded=0;whiteSpace=wrap;html=1;" vertex="1" parent="1">
          <mxGeometry x="10" y="50" width="460" height="50" as="geometry" />
        </mxCell>
        <mxCell id="aG2Aldjfy5AcgCDv7o8_-6" value="" style="rounded=0;whiteSpace=wrap;html=1;" vertex="1" parent="1">
          <mxGeometry x="10" y="100" width="90" height="230" as="geometry" />
        </mxCell>
        <mxCell id="aG2Aldjfy5AcgCDv7o8_-7" value="" style="ellipse;whiteSpace=wrap;html=1;aspect=fixed;" vertex="1" parent="1">
          <mxGeometry x="20" y="60" width="30" height="30" as="geometry" />
        </mxCell>
        <mxCell id="aG2Aldjfy5AcgCDv7o8_-9" value="" style="rounded=0;whiteSpace=wrap;html=1;" vertex="1" parent="1">
          <mxGeometry x="60" y="71.25" width="60" height="7.5" as="geometry" />
        </mxCell>
        <mxCell id="aG2Aldjfy5AcgCDv7o8_-11" value="" style="rounded=0;whiteSpace=wrap;html=1;" vertex="1" parent="1">
          <mxGeometry x="130" y="71.25" width="60" height="7.5" as="geometry" />
        </mxCell>
        <mxCell id="aG2Aldjfy5AcgCDv7o8_-12" value="&lt;font style=&quot;font-size: 7px;&quot;&gt;usuario&lt;/font&gt;" style="text;html=1;strokeColor=none;fillColor=none;align=center;verticalAlign=middle;whiteSpace=wrap;rounded=0;" vertex="1" parent="1">
          <mxGeometry x="60" y="52.5" width="50" height="18.75" as="geometry" />
        </mxCell>
        <mxCell id="aG2Aldjfy5AcgCDv7o8_-13" value="&lt;font style=&quot;font-size: 7px;&quot;&gt;senha&lt;/font&gt;" style="text;html=1;strokeColor=none;fillColor=none;align=center;verticalAlign=middle;whiteSpace=wrap;rounded=0;" vertex="1" parent="1">
          <mxGeometry x="130" y="46.879999999999995" width="60" height="30" as="geometry" />
        </mxCell>
        <mxCell id="aG2Aldjfy5AcgCDv7o8_-14" value="&lt;h1&gt;Heading&lt;/h1&gt;&lt;p&gt;Lorem ipsum dolor sit amet, consectetur adipisicing elit, sed do eiusmod tempor incididunt ut labore et dolore magna aliqua.&lt;/p&gt;" style="text;html=1;strokeColor=none;fillColor=none;spacing=5;spacingTop=-20;whiteSpace=wrap;overflow=hidden;rounded=0;" vertex="1" parent="1">
          <mxGeometry x="20" y="115" width="70" height="185" as="geometry" />
        </mxCell>
        <mxCell id="aG2Aldjfy5AcgCDv7o8_-15" value="" style="rounded=0;whiteSpace=wrap;html=1;" vertex="1" parent="1">
          <mxGeometry x="40" y="30" width="380" height="10" as="geometry" />
        </mxCell>
        <mxCell id="aG2Aldjfy5AcgCDv7o8_-16" value="" style="whiteSpace=wrap;html=1;aspect=fixed;" vertex="1" parent="1">
          <mxGeometry x="430" y="30" width="10" height="10" as="geometry" />
        </mxCell>
        <mxCell id="aG2Aldjfy5AcgCDv7o8_-17" value="" style="whiteSpace=wrap;html=1;aspect=fixed;" vertex="1" parent="1">
          <mxGeometry x="20" y="30" width="10" height="10" as="geometry" />
        </mxCell>
        <mxCell id="aG2Aldjfy5AcgCDv7o8_-19" value="" style="rounded=0;whiteSpace=wrap;html=1;" vertex="1" parent="1">
          <mxGeometry x="110" y="133.12" width="120" height="60" as="geometry" />
        </mxCell>
        <mxCell id="aG2Aldjfy5AcgCDv7o8_-20" value="" style="rounded=0;whiteSpace=wrap;html=1;" vertex="1" parent="1">
          <mxGeometry x="110" y="220" width="120" height="50" as="geometry" />
        </mxCell>
        <mxCell id="aG2Aldjfy5AcgCDv7o8_-21" value="" style="rounded=0;whiteSpace=wrap;html=1;" vertex="1" parent="1">
          <mxGeometry x="250" y="133.12" width="120" height="60" as="geometry" />
        </mxCell>
        <mxCell id="aG2Aldjfy5AcgCDv7o8_-22" value="" style="rounded=0;whiteSpace=wrap;html=1;" vertex="1" parent="1">
          <mxGeometry x="250" y="220" width="120" height="50" as="geometry" />
        </mxCell>
        <mxCell id="aG2Aldjfy5AcgCDv7o8_-106" value="" style="rounded=0;whiteSpace=wrap;html=1;" vertex="1" parent="1">
          <mxGeometry x="10" y="310" width="460" height="20" as="geometry" />
        </mxCell>
        <mxCell id="aG2Aldjfy5AcgCDv7o8_-109" value="" style="rounded=0;whiteSpace=wrap;html=1;" vertex="1" parent="1">
          <mxGeometry x="500" y="20" width="460" height="310" as="geometry" />
        </mxCell>
        <mxCell id="aG2Aldjfy5AcgCDv7o8_-110" value="" style="rounded=0;whiteSpace=wrap;html=1;" vertex="1" parent="1">
          <mxGeometry x="500" y="20" width="460" height="30" as="geometry" />
        </mxCell>
        <mxCell id="aG2Aldjfy5AcgCDv7o8_-120" value="" style="rounded=0;whiteSpace=wrap;html=1;" vertex="1" parent="1">
          <mxGeometry x="530" y="30" width="380" height="10" as="geometry" />
        </mxCell>
        <mxCell id="aG2Aldjfy5AcgCDv7o8_-121" value="" style="whiteSpace=wrap;html=1;aspect=fixed;" vertex="1" parent="1">
          <mxGeometry x="920" y="30" width="10" height="10" as="geometry" />
        </mxCell>
        <mxCell id="aG2Aldjfy5AcgCDv7o8_-122" value="" style="whiteSpace=wrap;html=1;aspect=fixed;" vertex="1" parent="1">
          <mxGeometry x="510" y="30" width="10" height="10" as="geometry" />
        </mxCell>
        <mxCell id="aG2Aldjfy5AcgCDv7o8_-138" value="" style="rounded=0;whiteSpace=wrap;html=1;" vertex="1" parent="1">
          <mxGeometry x="500" y="310" width="460" height="20" as="geometry" />
        </mxCell>
        <mxCell id="aG2Aldjfy5AcgCDv7o8_-186" value="" style="rounded=0;whiteSpace=wrap;html=1;" vertex="1" parent="1">
          <mxGeometry x="10" y="360" width="460" height="310" as="geometry" />
        </mxCell>
        <mxCell id="aG2Aldjfy5AcgCDv7o8_-187" value="" style="rounded=0;whiteSpace=wrap;html=1;" vertex="1" parent="1">
          <mxGeometry x="10" y="360" width="460" height="30" as="geometry" />
        </mxCell>
        <mxCell id="aG2Aldjfy5AcgCDv7o8_-196" value="" style="rounded=0;whiteSpace=wrap;html=1;" vertex="1" parent="1">
          <mxGeometry x="40" y="370" width="380" height="10" as="geometry" />
        </mxCell>
        <mxCell id="aG2Aldjfy5AcgCDv7o8_-197" value="" style="whiteSpace=wrap;html=1;aspect=fixed;" vertex="1" parent="1">
          <mxGeometry x="430" y="370" width="10" height="10" as="geometry" />
        </mxCell>
        <mxCell id="aG2Aldjfy5AcgCDv7o8_-198" value="" style="whiteSpace=wrap;html=1;aspect=fixed;" vertex="1" parent="1">
          <mxGeometry x="20" y="370" width="10" height="10" as="geometry" />
        </mxCell>
        <mxCell id="aG2Aldjfy5AcgCDv7o8_-203" value="" style="rounded=0;whiteSpace=wrap;html=1;" vertex="1" parent="1">
          <mxGeometry x="10" y="650" width="460" height="20" as="geometry" />
        </mxCell>
        <mxCell id="aG2Aldjfy5AcgCDv7o8_-208" style="edgeStyle=orthogonalEdgeStyle;rounded=0;orthogonalLoop=1;jettySize=auto;html=1;exitX=0.5;exitY=1;exitDx=0;exitDy=0;" edge="1" parent="1">
          <mxGeometry relative="1" as="geometry">
            <mxPoint x="550" y="162.5" as="sourcePoint" />
            <mxPoint x="550" y="162.5" as="targetPoint" />
          </mxGeometry>
        </mxCell>
        <mxCell id="aG2Aldjfy5AcgCDv7o8_-212" value="" style="rounded=0;whiteSpace=wrap;html=1;" vertex="1" parent="1">
          <mxGeometry x="500" y="50" width="460" height="83.12" as="geometry" />
        </mxCell>
        <mxCell id="aG2Aldjfy5AcgCDv7o8_-213" value="" style="ellipse;whiteSpace=wrap;html=1;aspect=fixed;" vertex="1" parent="1">
          <mxGeometry x="525" y="78.75" width="80" height="80" as="geometry" />
        </mxCell>
        <mxCell id="aG2Aldjfy5AcgCDv7o8_-214" value="" style="rounded=0;whiteSpace=wrap;html=1;" vertex="1" parent="1">
          <mxGeometry x="520" y="165" width="90" height="20" as="geometry" />
        </mxCell>
        <mxCell id="aG2Aldjfy5AcgCDv7o8_-215" value="Nome" style="text;html=1;strokeColor=none;fillColor=none;align=center;verticalAlign=middle;whiteSpace=wrap;rounded=0;" vertex="1" parent="1">
          <mxGeometry x="535" y="160" width="60" height="30" as="geometry" />
        </mxCell>
        <mxCell id="aG2Aldjfy5AcgCDv7o8_-216" value="" style="rounded=1;whiteSpace=wrap;html=1;" vertex="1" parent="1">
          <mxGeometry x="520" y="210" width="90" height="20" as="geometry" />
        </mxCell>
        <mxCell id="aG2Aldjfy5AcgCDv7o8_-218" value="" style="rounded=1;whiteSpace=wrap;html=1;" vertex="1" parent="1">
          <mxGeometry x="650" y="142.5" width="120" height="107.5" as="geometry" />
        </mxCell>
        <mxCell id="aG2Aldjfy5AcgCDv7o8_-220" value="&lt;font style=&quot;font-size: 7px;&quot;&gt;Onde mora&lt;/font&gt;" style="text;html=1;strokeColor=none;fillColor=none;align=center;verticalAlign=middle;whiteSpace=wrap;rounded=0;" vertex="1" parent="1">
          <mxGeometry x="525" y="205" width="60" height="30" as="geometry" />
        </mxCell>
        <mxCell id="aG2Aldjfy5AcgCDv7o8_-221" value="" style="rounded=1;whiteSpace=wrap;html=1;" vertex="1" parent="1">
          <mxGeometry x="520" y="235" width="90" height="20" as="geometry" />
        </mxCell>
        <mxCell id="aG2Aldjfy5AcgCDv7o8_-222" value="&lt;font style=&quot;font-size: 7px;&quot;&gt;Cargo&lt;/font&gt;" style="text;html=1;strokeColor=none;fillColor=none;align=center;verticalAlign=middle;whiteSpace=wrap;rounded=0;" vertex="1" parent="1">
          <mxGeometry x="525" y="230" width="60" height="30" as="geometry" />
        </mxCell>
        <mxCell id="aG2Aldjfy5AcgCDv7o8_-223" value="Experiencias" style="text;html=1;strokeColor=none;fillColor=none;align=center;verticalAlign=middle;whiteSpace=wrap;rounded=0;" vertex="1" parent="1">
          <mxGeometry x="680" y="145" width="60" height="30" as="geometry" />
        </mxCell>
        <mxCell id="aG2Aldjfy5AcgCDv7o8_-224" value="" style="rounded=1;whiteSpace=wrap;html=1;" vertex="1" parent="1">
          <mxGeometry x="800" y="142.5" width="120" height="107.5" as="geometry" />
        </mxCell>
        <mxCell id="aG2Aldjfy5AcgCDv7o8_-225" value="EspecializaÃ§oes" style="text;html=1;strokeColor=none;fillColor=none;align=center;verticalAlign=middle;whiteSpace=wrap;rounded=0;" vertex="1" parent="1">
          <mxGeometry x="827" y="145" width="60" height="30" as="geometry" />
        </mxCell>
        <mxCell id="aG2Aldjfy5AcgCDv7o8_-226" value="Configuraoes" style="text;html=1;strokeColor=none;fillColor=none;align=center;verticalAlign=middle;whiteSpace=wrap;rounded=0;" vertex="1" parent="1">
          <mxGeometry x="180" y="420" width="100" height="30" as="geometry" />
        </mxCell>
        <mxCell id="aG2Aldjfy5AcgCDv7o8_-227" value="" style="rounded=1;whiteSpace=wrap;html=1;" vertex="1" parent="1">
          <mxGeometry x="30" y="470" width="80" height="20" as="geometry" />
        </mxCell>
        <mxCell id="aG2Aldjfy5AcgCDv7o8_-229" value="" style="rounded=1;whiteSpace=wrap;html=1;" vertex="1" parent="1">
          <mxGeometry x="30" y="510" width="80" height="20" as="geometry" />
        </mxCell>
        <mxCell id="aG2Aldjfy5AcgCDv7o8_-231" value="" style="rounded=1;whiteSpace=wrap;html=1;" vertex="1" parent="1">
          <mxGeometry x="30" y="550" width="80" height="20" as="geometry" />
        </mxCell>
        <mxCell id="aG2Aldjfy5AcgCDv7o8_-233" value="" style="rounded=1;whiteSpace=wrap;html=1;" vertex="1" parent="1">
          <mxGeometry x="190" y="470" width="80" height="20" as="geometry" />
        </mxCell>
        <mxCell id="aG2Aldjfy5AcgCDv7o8_-234" value="" style="rounded=1;whiteSpace=wrap;html=1;" vertex="1" parent="1">
          <mxGeometry x="190" y="510" width="80" height="20" as="geometry" />
        </mxCell>
        <mxCell id="aG2Aldjfy5AcgCDv7o8_-235" value="" style="rounded=1;whiteSpace=wrap;html=1;" vertex="1" parent="1">
          <mxGeometry x="190" y="550" width="80" height="20" as="geometry" />
        </mxCell>
        <mxCell id="aG2Aldjfy5AcgCDv7o8_-236" value="&lt;font style=&quot;font-size: 10px;&quot;&gt;Efeitos Sonoros&lt;/font&gt;" style="rounded=1;whiteSpace=wrap;html=1;" vertex="1" parent="1">
          <mxGeometry x="360" y="470" width="80" height="20" as="geometry" />
        </mxCell>
        <mxCell id="aG2Aldjfy5AcgCDv7o8_-237" value="" style="rounded=1;whiteSpace=wrap;html=1;" vertex="1" parent="1">
          <mxGeometry x="360" y="510" width="80" height="20" as="geometry" />
        </mxCell>
        <mxCell id="aG2Aldjfy5AcgCDv7o8_-238" value="" style="rounded=1;whiteSpace=wrap;html=1;" vertex="1" parent="1">
          <mxGeometry x="360" y="550" width="80" height="20" as="geometry" />
        </mxCell>
        <mxCell id="aG2Aldjfy5AcgCDv7o8_-239" value="Fonte" style="text;html=1;strokeColor=none;fillColor=none;align=center;verticalAlign=middle;whiteSpace=wrap;rounded=0;" vertex="1" parent="1">
          <mxGeometry x="40" y="465" width="60" height="30" as="geometry" />
        </mxCell>
        <mxCell id="aG2Aldjfy5AcgCDv7o8_-240" value="Contraste" style="text;html=1;strokeColor=none;fillColor=none;align=center;verticalAlign=middle;whiteSpace=wrap;rounded=0;" vertex="1" parent="1">
          <mxGeometry x="40" y="505" width="60" height="30" as="geometry" />
        </mxCell>
        <mxCell id="aG2Aldjfy5AcgCDv7o8_-241" value="NotificaÃ§oes" style="text;html=1;strokeColor=none;fillColor=none;align=center;verticalAlign=middle;whiteSpace=wrap;rounded=0;" vertex="1" parent="1">
          <mxGeometry x="40" y="545" width="60" height="30" as="geometry" />
        </mxCell>
        <mxCell id="aG2Aldjfy5AcgCDv7o8_-242" value="&lt;font style=&quot;font-size: 8px;&quot;&gt;Acesso e seguranÃ§a&lt;/font&gt;" style="text;html=1;strokeColor=none;fillColor=none;align=center;verticalAlign=middle;whiteSpace=wrap;rounded=0;" vertex="1" parent="1">
          <mxGeometry x="190" y="465" width="80" height="30" as="geometry" />
        </mxCell>
        <mxCell id="aG2Aldjfy5AcgCDv7o8_-243" value="Privacidade" style="text;html=1;strokeColor=none;fillColor=none;align=center;verticalAlign=middle;whiteSpace=wrap;rounded=0;" vertex="1" parent="1">
          <mxGeometry x="200" y="505" width="60" height="30" as="geometry" />
        </mxCell>
        <mxCell id="aG2Aldjfy5AcgCDv7o8_-244" value="Idioma" style="text;html=1;strokeColor=none;fillColor=none;align=center;verticalAlign=middle;whiteSpace=wrap;rounded=0;" vertex="1" parent="1">
          <mxGeometry x="200" y="545" width="60" height="30" as="geometry" />
        </mxCell>
        <mxCell id="aG2Aldjfy5AcgCDv7o8_-246" value="&lt;font style=&quot;font-size: 6px;&quot;&gt;Gerenciamento da conta&lt;/font&gt;" style="text;html=1;strokeColor=none;fillColor=none;align=center;verticalAlign=middle;whiteSpace=wrap;rounded=0;" vertex="1" parent="1">
          <mxGeometry x="365" y="505" width="70" height="30" as="geometry" />
        </mxCell>
        <mxCell id="aG2Aldjfy5AcgCDv7o8_-247" value="Text" style="text;html=1;strokeColor=none;fillColor=none;align=center;verticalAlign=middle;whiteSpace=wrap;rounded=0;" vertex="1" parent="1">
          <mxGeometry x="370" y="545" width="60" height="30" as="geometry" />
        </mxCell>
        <mxCell id="aG2Aldjfy5AcgCDv7o8_-273" value="" style="rounded=0;whiteSpace=wrap;html=1;" vertex="1" parent="1">
          <mxGeometry x="500" y="360" width="460" height="310" as="geometry" />
        </mxCell>
        <mxCell id="aG2Aldjfy5AcgCDv7o8_-274" value="" style="rounded=0;whiteSpace=wrap;html=1;" vertex="1" parent="1">
          <mxGeometry x="500" y="360" width="460" height="30" as="geometry" />
        </mxCell>
        <mxCell id="aG2Aldjfy5AcgCDv7o8_-275" value="" style="rounded=0;whiteSpace=wrap;html=1;" vertex="1" parent="1">
          <mxGeometry x="530" y="370" width="380" height="10" as="geometry" />
        </mxCell>
        <mxCell id="aG2Aldjfy5AcgCDv7o8_-276" value="" style="whiteSpace=wrap;html=1;aspect=fixed;" vertex="1" parent="1">
          <mxGeometry x="920" y="370" width="10" height="10" as="geometry" />
        </mxCell>
        <mxCell id="aG2Aldjfy5AcgCDv7o8_-277" value="" style="whiteSpace=wrap;html=1;aspect=fixed;" vertex="1" parent="1">
          <mxGeometry x="510" y="370" width="10" height="10" as="geometry" />
        </mxCell>
        <mxCell id="aG2Aldjfy5AcgCDv7o8_-278" value="" style="rounded=0;whiteSpace=wrap;html=1;" vertex="1" parent="1">
          <mxGeometry x="500" y="650" width="460" height="20" as="geometry" />
        </mxCell>
        <mxCell id="aG2Aldjfy5AcgCDv7o8_-279" style="edgeStyle=orthogonalEdgeStyle;rounded=0;orthogonalLoop=1;jettySize=auto;html=1;exitX=0.5;exitY=1;exitDx=0;exitDy=0;" edge="1" parent="1">
          <mxGeometry relative="1" as="geometry">
            <mxPoint x="550" y="502.5" as="sourcePoint" />
            <mxPoint x="550" y="502.5" as="targetPoint" />
          </mxGeometry>
        </mxCell>
        <mxCell id="aG2Aldjfy5AcgCDv7o8_-280" value="" style="rounded=0;whiteSpace=wrap;html=1;" vertex="1" parent="1">
          <mxGeometry x="500" y="390" width="460" height="83.12" as="geometry" />
        </mxCell>
        <mxCell id="aG2Aldjfy5AcgCDv7o8_-281" value="" style="ellipse;whiteSpace=wrap;html=1;aspect=fixed;" vertex="1" parent="1">
          <mxGeometry x="525" y="418.75" width="80" height="80" as="geometry" />
        </mxCell>
        <mxCell id="aG2Aldjfy5AcgCDv7o8_-282" value="" style="rounded=0;whiteSpace=wrap;html=1;" vertex="1" parent="1">
          <mxGeometry x="520" y="505" width="90" height="20" as="geometry" />
        </mxCell>
        <mxCell id="aG2Aldjfy5AcgCDv7o8_-283" value="Nome" style="text;html=1;strokeColor=none;fillColor=none;align=center;verticalAlign=middle;whiteSpace=wrap;rounded=0;" vertex="1" parent="1">
          <mxGeometry x="535" y="500" width="60" height="30" as="geometry" />
        </mxCell>
        <mxCell id="aG2Aldjfy5AcgCDv7o8_-299" value="" style="rounded=0;whiteSpace=wrap;html=1;" vertex="1" parent="1">
          <mxGeometry x="810" y="481.25" width="140" height="82.5" as="geometry" />
        </mxCell>
        <mxCell id="aG2Aldjfy5AcgCDv7o8_-300" value="" style="rounded=0;whiteSpace=wrap;html=1;" vertex="1" parent="1">
          <mxGeometry x="810" y="481.25" width="140" height="15" as="geometry" />
        </mxCell>
        <mxCell id="aG2Aldjfy5AcgCDv7o8_-301" value="Conquistas Profissionais" style="text;html=1;strokeColor=none;fillColor=none;align=center;verticalAlign=middle;whiteSpace=wrap;rounded=0;" vertex="1" parent="1">
          <mxGeometry x="805" y="475" width="150" height="30" as="geometry" />
        </mxCell>
        <mxCell id="aG2Aldjfy5AcgCDv7o8_-303" value="" style="rounded=0;whiteSpace=wrap;html=1;" vertex="1" parent="1">
          <mxGeometry x="510" y="530" width="110" height="120" as="geometry" />
        </mxCell>
        <mxCell id="aG2Aldjfy5AcgCDv7o8_-304" value="Eventos da Empresa" style="text;html=1;strokeColor=none;fillColor=none;align=center;verticalAlign=middle;whiteSpace=wrap;rounded=0;" vertex="1" parent="1">
          <mxGeometry x="520" y="530" width="80" height="40" as="geometry" />
        </mxCell>
        <mxCell id="aG2Aldjfy5AcgCDv7o8_-311" value="" style="rounded=1;whiteSpace=wrap;html=1;" vertex="1" parent="1">
          <mxGeometry x="660" y="585" width="170" height="60" as="geometry" />
        </mxCell>
        <mxCell id="aG2Aldjfy5AcgCDv7o8_-313" value="Comentarios" style="text;html=1;strokeColor=none;fillColor=none;align=center;verticalAlign=middle;whiteSpace=wrap;rounded=0;" vertex="1" parent="1">
          <mxGeometry x="665" y="585" width="90" height="30" as="geometry" />
        </mxCell>
        <mxCell id="aG2Aldjfy5AcgCDv7o8_-320" value="" style="rounded=0;whiteSpace=wrap;html=1;" vertex="1" parent="1">
          <mxGeometry x="660" y="481.25" width="140" height="82.5" as="geometry" />
        </mxCell>
        <mxCell id="aG2Aldjfy5AcgCDv7o8_-321" value="" style="rounded=0;whiteSpace=wrap;html=1;" vertex="1" parent="1">
          <mxGeometry x="660" y="481.25" width="140" height="15" as="geometry" />
        </mxCell>
        <mxCell id="aG2Aldjfy5AcgCDv7o8_-322" value="Postagem de artigos" style="text;html=1;strokeColor=none;fillColor=none;align=center;verticalAlign=middle;whiteSpace=wrap;rounded=0;" vertex="1" parent="1">
          <mxGeometry x="650" y="475" width="140" height="30" as="geometry" />
        </mxCell>
        <mxCell id="aG2Aldjfy5AcgCDv7o8_-324" value="" style="ellipse;whiteSpace=wrap;html=1;aspect=fixed;" vertex="1" parent="1">
          <mxGeometry x="930" y="620" width="20" height="20" as="geometry" />
        </mxCell>
        <mxCell id="aG2Aldjfy5AcgCDv7o8_-325" value="?" style="text;html=1;strokeColor=none;fillColor=none;align=center;verticalAlign=middle;whiteSpace=wrap;rounded=0;" vertex="1" parent="1">
          <mxGeometry x="910" y="615" width="60" height="30" as="geometry" />
        </mxCell>
        <mxCell id="aG2Aldjfy5AcgCDv7o8_-326" value="" style="ellipse;whiteSpace=wrap;html=1;aspect=fixed;" vertex="1" parent="1">
          <mxGeometry x="435" y="625" width="20" height="20" as="geometry" />
        </mxCell>
        <mxCell id="aG2Aldjfy5AcgCDv7o8_-327" value="?" style="text;html=1;strokeColor=none;fillColor=none;align=center;verticalAlign=middle;whiteSpace=wrap;rounded=0;" vertex="1" parent="1">
          <mxGeometry x="414" y="620" width="60" height="30" as="geometry" />
        </mxCell>
        <mxCell id="aG2Aldjfy5AcgCDv7o8_-328" value="" style="ellipse;whiteSpace=wrap;html=1;aspect=fixed;" vertex="1" parent="1">
          <mxGeometry x="435" y="280" width="20" height="20" as="geometry" />
        </mxCell>
        <mxCell id="aG2Aldjfy5AcgCDv7o8_-330" value="?" style="text;html=1;strokeColor=none;fillColor=none;align=center;verticalAlign=middle;whiteSpace=wrap;rounded=0;" vertex="1" parent="1">
          <mxGeometry x="415" y="275" width="60" height="30" as="geometry" />
        </mxCell>
      </root>
    </mxGraphModel>
  </diagram>
</mxfile>
